<svg width="22" height="22" viewBox="0 0 22 22" fill="none" xmlns="http://www.w3.org/2000/svg">
<path d="M20.4512 1.54822C18.6487 -0.25569 17.295 0.014334 17.295 0.014334L9.72998 7.57999L1.2625 16.047L0 22L5.95373 20.7374L14.4212 12.2729L21.9862 4.70724C21.9849 4.70724 22.2562 3.35337 20.4512 1.54822V1.54822ZM5.59999 20.0223L3.56999 20.4599C3.34533 20.0287 3.05428 19.6355 2.70749 19.2948C2.36643 18.948 1.97337 18.6566 1.5425 18.4309L1.97999 16.402L2.56749 15.8157C2.56749 15.8157 3.67124 15.8382 4.91874 17.0858C6.16498 18.3309 6.18873 19.4373 6.18873 19.4373L5.59999 20.0223V20.0223Z" fill="white"/>
</svg>
