<svg width="55" height="51" viewBox="0 0 55 51" fill="none" xmlns="http://www.w3.org/2000/svg">
<path d="M18.5 3.85714C20.2659 3.85714 21.9922 4.42269 23.4604 5.48226C24.9287 6.54183 26.0731 8.04783 26.7489 9.80984C27.4247 11.5718 27.6015 13.5107 27.257 15.3812C26.9125 17.2518 26.0621 18.9699 24.8135 20.3185C23.5648 21.6671 21.9739 22.5855 20.2419 22.9576C18.5099 23.3296 16.7147 23.1387 15.0832 22.4088C13.4517 21.679 12.0573 20.443 11.0762 18.8573C10.0951 17.2715 9.57143 15.4072 9.57143 13.5C9.57143 10.9426 10.5121 8.48986 12.1866 6.68147C13.861 4.87308 16.132 3.85714 18.5 3.85714ZM18.5 0C16.0277 0 13.611 0.791761 11.5554 2.27516C9.49976 3.75856 7.89761 5.86697 6.95151 8.33377C6.00542 10.8006 5.75787 13.515 6.24019 16.1337C6.7225 18.7525 7.91301 21.1579 9.66117 23.0459C11.4093 24.9339 13.6366 26.2197 16.0614 26.7406C18.4861 27.2615 20.9995 26.9941 23.2835 25.9724C25.5676 24.9506 27.5199 23.2203 28.8934 21.0002C30.2669 18.7801 31 16.17 31 13.5C31 9.91958 29.683 6.4858 27.3388 3.95406C24.9946 1.42232 21.8152 0 18.5 0Z" fill="white"/>
<path d="M37 51H33.3V41.8333C33.3 39.4022 32.3254 37.0706 30.5907 35.3515C28.856 33.6324 26.5033 32.6667 24.05 32.6667H12.95C10.4967 32.6667 8.14397 33.6324 6.40926 35.3515C4.67455 37.0706 3.7 39.4022 3.7 41.8333V51H0V41.8333C0 38.4297 1.36437 35.1655 3.79297 32.7588C6.22156 30.3521 9.51545 29 12.95 29H24.05C27.4846 29 30.7784 30.3521 33.207 32.7588C35.6356 35.1655 37 38.4297 37 41.8333V51Z" fill="white"/>
<path d="M37 4H55V7H37V4Z" fill="white"/>
<path d="M37 13H55V16H37V13Z" fill="white"/>
<path d="M37 22H49V27H37V22Z" fill="white"/>
</svg>
