<svg width="31" height="29" viewBox="0 0 31 29" fill="none" xmlns="http://www.w3.org/2000/svg">
<path d="M1.5497 15.9501H3.09974V26.1C3.09974 27.6994 4.49012 29 6.1998 29H24.8002C26.5099 29 27.9003 27.6994 27.9003 26.1V15.9501H29.4503C29.7568 15.9501 30.0564 15.865 30.3113 15.7057C30.5661 15.5463 30.7647 15.3199 30.882 15.055C30.9993 14.7901 31.03 14.4986 30.9702 14.2174C30.9105 13.9361 30.7629 13.6778 30.5462 13.475L16.5959 0.425137C16.4521 0.290367 16.2812 0.183449 16.0932 0.110499C15.9051 0.0375489 15.7036 0 15.5 0C15.2964 0 15.0949 0.0375489 14.9068 0.110499C14.7188 0.183449 14.548 0.290367 14.4041 0.425137L0.453829 13.475C0.23712 13.6778 0.089547 13.9361 0.029766 14.2174C-0.030015 14.4986 0.000680389 14.7901 0.117971 15.055C0.235263 15.3199 0.433883 15.5463 0.688724 15.7057C0.943564 15.865 1.24318 15.9501 1.5497 15.9501ZM12.3999 26.1V18.8501H18.6001V26.1H12.3999ZM15.5 3.50056L24.8002 12.2005V18.8501L24.8017 26.1H21.7001V18.8501C21.7001 17.2508 20.3098 15.9501 18.6001 15.9501H12.3999C10.6902 15.9501 9.29987 17.2508 9.29987 18.8501V26.1H6.1998V12.2005L15.5 3.50056Z" fill="white"/>
</svg>
