<svg width="17" height="17" viewBox="0 0 17 17" fill="none" xmlns="http://www.w3.org/2000/svg">
<path d="M1 1L1.64286 3.14286M1.64286 3.14286L4.21429 11.7143H16V5.28571C16 4.71739 15.7742 4.17235 15.3724 3.77049C14.9705 3.36862 14.4255 3.14286 13.8571 3.14286H1.64286ZM6.89286 7.42857H12.25M13.8571 16C13.573 16 13.3005 15.8871 13.0995 15.6862C12.8986 15.4853 12.7857 15.2127 12.7857 14.9286C12.7857 14.6444 12.8986 14.3719 13.0995 14.171C13.3005 13.97 13.573 13.8571 13.8571 13.8571C14.1413 13.8571 14.4138 13.97 14.6148 14.171C14.8157 14.3719 14.9286 14.6444 14.9286 14.9286C14.9286 15.2127 14.8157 15.4853 14.6148 15.6862C14.4138 15.8871 14.1413 16 13.8571 16ZM5.28571 14.9286C5.28571 14.6444 5.3986 14.3719 5.59953 14.171C5.80046 13.97 6.07298 13.8571 6.35714 13.8571C6.6413 13.8571 6.91383 13.97 7.11476 14.171C7.31569 14.3719 7.42857 14.6444 7.42857 14.9286C7.42857 15.2127 7.31569 15.4853 7.11476 15.6862C6.91383 15.8871 6.6413 16 6.35714 16C6.07298 16 5.80046 15.8871 5.59953 15.6862C5.3986 15.4853 5.28571 15.2127 5.28571 14.9286Z" stroke="white"/>
</svg>
