<svg width="23" height="24" viewBox="0 0 23 24" fill="none" xmlns="http://www.w3.org/2000/svg">
<path d="M1 1L1.9 4.14286M1.9 4.14286L5.5 16.7143H22V7.28571C22 6.45218 21.6839 5.65278 21.1213 5.06338C20.5587 4.47398 19.7956 4.14286 19 4.14286H1.9ZM9.25 10.4286H16.75M13.1 6.65714V14.4095M19 23C18.6022 23 18.2206 22.8344 17.9393 22.5397C17.658 22.245 17.5 21.8453 17.5 21.4286C17.5 21.0118 17.658 20.6121 17.9393 20.3174C18.2206 20.0227 18.6022 19.8571 19 19.8571C19.3978 19.8571 19.7794 20.0227 20.0607 20.3174C20.342 20.6121 20.5 21.0118 20.5 21.4286C20.5 21.8453 20.342 22.245 20.0607 22.5397C19.7794 22.8344 19.3978 23 19 23ZM7 21.4286C7 21.0118 7.15804 20.6121 7.43934 20.3174C7.72064 20.0227 8.10218 19.8571 8.5 19.8571C8.89782 19.8571 9.27936 20.0227 9.56066 20.3174C9.84196 20.6121 10 21.0118 10 21.4286C10 21.8453 9.84196 22.245 9.56066 22.5397C9.27936 22.8344 8.89782 23 8.5 23C8.10218 23 7.72064 22.8344 7.43934 22.5397C7.15804 22.245 7 21.8453 7 21.4286Z" stroke="white" stroke-width="2"/>
</svg>
