<svg width="44" height="56" viewBox="0 0 44 56" fill="none" xmlns="http://www.w3.org/2000/svg">
<path d="M10 32H26V36H10V32Z" fill="white"/>
<path d="M10 21H34V26H10V21Z" fill="white"/>
<path d="M10 41H20V46H10V41Z" fill="white"/>
<path d="M40 6H34V4C34 2.93913 33.5786 1.92172 32.8284 1.17157C32.0783 0.421427 31.0609 0 30 0H14C12.9391 0 11.9217 0.421427 11.1716 1.17157C10.4214 1.92172 10 2.93913 10 4V6H4C2.93913 6 1.92172 6.42143 1.17157 7.17157C0.421427 7.92172 0 8.93913 0 10V52C0 53.0609 0.421427 54.0783 1.17157 54.8284C1.92172 55.5786 2.93913 56 4 56H40C41.0609 56 42.0783 55.5786 42.8284 54.8284C43.5786 54.0783 44 53.0609 44 52V10C44 8.93913 43.5786 7.92172 42.8284 7.17157C42.0783 6.42143 41.0609 6 40 6V6ZM14 4H30V12H14V4ZM40 52H4V10H10V16H34V10H40V52Z" fill="white"/>
</svg>
